<svg xmlns="http://www.w3.org/2000/svg" width="28" height="28" viewBox="0 0 28 28"><defs><style>.a{fill:#ccc;}</style></defs><path class="a" d="M27.5,101.989,18.419,90.972A1.551,1.551,0,0,0,16.48,90.4a2.188,2.188,0,0,0-1.127,2.134v4.976H13.575l-5.1,0a1.952,1.952,0,0,0-1.822,2.2q-.005,3.9,0,7.791a1.966,1.966,0,0,0,1.8,2.176l6.9,0,0,.963c0,1.351-.007,2.7.016,4.047a2.892,2.892,0,0,0,.444,1.5,1.524,1.524,0,0,0,1.256.753h0a1.819,1.819,0,0,0,1.36-.744q4.546-5.5,9.086-11.015A2.393,2.393,0,0,0,27.5,101.989ZM10.716,113.332h0l-1.984,0-2.84,0c-1.435,0-2.259-1-2.259-2.74V96.589c0-1.737.824-2.734,2.263-2.734l1.881,0,2.067,0,1.15,0c.822,0,1.272-.5,1.337-1.485.024-.367.017-.74.007-1.156-.021-1.037-.5-1.61-1.346-1.612H8.9c-1.118,0-2.236,0-3.353.008a4.28,4.28,0,0,0-1.046.14C1.98,90.4.139,93.14.125,96.264c-.007,1.684-.005,3.37,0,5.052l0,2.242,0,2.352c0,1.69-.005,3.379.007,5.071.024,3.572,2.427,6.531,5.357,6.6.721.017,1.444.021,2.165.021l3.428-.008a1.272,1.272,0,0,0,1.235-1.3c.03-.293.033-.592.035-.891v-.148A2.262,2.262,0,0,0,12,113.778,1.526,1.526,0,0,0,10.716,113.332Z" transform="translate(-0.118 -89.6)"/></svg>