<svg xmlns="http://www.w3.org/2000/svg" width="60" height="45.779" viewBox="0 0 60 45.779"><defs><style>.a{fill:#4d4d4d;}</style></defs><path class="a" d="M19.059,27.619A10.942,10.942,0,1,0,30,16.8,10.883,10.883,0,0,0,19.059,27.619ZM5.412,3.266H12V5.972H5.412ZM56.118,8.56H44.235A8.659,8.659,0,0,1,41.294,4.8c-1.176-2.471-5.529-2.471-5.529-2.471H22S20.588,1.972,18.941,4.8A13.757,13.757,0,0,1,15.882,8.56h-12A3.943,3.943,0,0,0,0,12.56V43.972A3.973,3.973,0,0,0,3.882,48.09H56.118a3.943,3.943,0,0,0,3.882-4V12.56a3.943,3.943,0,0,0-3.882-4ZM30,41.031A13.53,13.53,0,1,1,43.647,27.5,13.557,13.557,0,0,1,30,41.031ZM49.647,16.207a2.212,2.212,0,0,1-2.235-2.118,2.138,2.138,0,0,1,2.235-2.118,2.212,2.212,0,0,1,2.235,2.118A2.294,2.294,0,0,1,49.647,16.207Z" transform="translate(0 -2.311)"/></svg>