<svg xmlns="http://www.w3.org/2000/svg" width="47.94" height="60" viewBox="0 0 47.94 60"><defs><style>.a{fill:#4d4d4d;}</style></defs><path class="a" d="M178.611,32H138.347a3.729,3.729,0,0,0-3.947,3.947V88.053A4.245,4.245,0,0,0,138.347,92h25.263a3.729,3.729,0,0,0,3.947-3.947V79.763a4.245,4.245,0,0,1,3.947-3.947h6.711a3.729,3.729,0,0,0,3.947-3.947V35.553C182.953,33.579,180.979,32,178.611,32ZM165.584,64.368a1.865,1.865,0,0,1-1.974,1.974H145.847a1.865,1.865,0,0,1-1.974-1.974v-.395A1.865,1.865,0,0,1,145.847,62h17.763C164.795,62,165.584,62.789,165.584,64.368Zm8.684-10.658a1.865,1.865,0,0,1-1.974,1.974H145.847c-1.184-.395-2.368-1.184-2.368-1.974v-.395a1.865,1.865,0,0,1,1.974-1.974H171.9A2.093,2.093,0,0,1,174.268,53.711Zm0-10.658a1.865,1.865,0,0,1-1.974,1.974H145.847a1.865,1.865,0,0,1-1.974-1.974v-.395a1.865,1.865,0,0,1,1.974-1.974h26.447C173.479,40.684,174.268,41.474,174.268,43.053Zm-3.947,39.474v5.526a2.127,2.127,0,0,0,3.553,1.579l7.895-7.895a2.127,2.127,0,0,0-1.579-3.553h-5.526A4.381,4.381,0,0,0,170.321,82.526Z" transform="translate(-134.4 -32)"/></svg>