<svg xmlns="http://www.w3.org/2000/svg" width="50" height="49.999" viewBox="0 0 50 49.999"><defs><style>.a{fill:#7d7d7d;}</style></defs><path class="a" d="M-2460-14002a24.964,24.964,0,0,1,25-25,25.121,25.121,0,0,1,25,25,24.964,24.964,0,0,1-25,25A24.964,24.964,0,0,1-2460-14002Zm2.913,0a22.168,22.168,0,0,0,22.087,22.087,22.168,22.168,0,0,0,22.087-22.087,22.168,22.168,0,0,0-22.087-22.088A22.168,22.168,0,0,0-2457.086-14002Zm9.951,6.311h24.272s-.971,9.466-12.136,9.466C-2445.921-13986.224-2447.134-13995.689-2447.134-13995.689Zm17.233-9.952a2.912,2.912,0,0,1,2.913-2.912,2.912,2.912,0,0,1,2.913,2.912,2.913,2.913,0,0,1-2.913,2.913A2.913,2.913,0,0,1-2429.9-14005.642Zm-16.019,0a2.8,2.8,0,0,1,2.913-2.912,4.509,4.509,0,0,1,1.7.485c0,.243.243.243.486.485a2.756,2.756,0,0,1,.728,1.941,2.8,2.8,0,0,1-2.913,2.913A2.8,2.8,0,0,1-2445.921-14005.642Z" transform="translate(2459.998 14027)"/></svg>