<svg xmlns="http://www.w3.org/2000/svg" width="28" height="28" viewBox="0 0 28 28"><defs><style>.a{fill:#ccc;}</style></defs><path class="a" d="M-125.521,3822a2.479,2.479,0,0,1-2.479-2.479v-19.674a2.479,2.479,0,0,1,2.479-2.479h6.137v-1.129a2.2,2.2,0,0,1,2.153-2.24h15.077a2.2,2.2,0,0,1,2.154,2.24v20.16a2.2,2.2,0,0,1-2.154,2.24h-2.134v-2.24a2.036,2.036,0,0,0,2.134-2.24v-15.68a2.2,2.2,0,0,0-2.153-2.241h-10.769a2.14,2.14,0,0,0-1.871,1.129h10.182a2.479,2.479,0,0,1,2.478,2.479v19.674a2.479,2.479,0,0,1-2.478,2.479Zm1.81-6.057v.914a.679.679,0,0,0,.679.68H-109.3a.68.68,0,0,0,.681-.68l0-.914a.679.679,0,0,0-.68-.68h-13.732A.679.679,0,0,0-123.711,3815.942Zm0-6.693v.87a.681.681,0,0,0,.679.681h9.445a.681.681,0,0,0,.681-.681v-.87a.681.681,0,0,0-.681-.681h-9.444A.68.68,0,0,0-123.711,3809.249Zm0-6.738v.87a.68.68,0,0,0,.679.68h6.208a.679.679,0,0,0,.68-.68v-.87a.679.679,0,0,0-.68-.68h-6.208A.679.679,0,0,0-123.711,3802.511Z" transform="translate(128 -3794)"/></svg>