<svg xmlns="http://www.w3.org/2000/svg" width="40" height="48.759" viewBox="0 0 40 48.759"><defs><style>.a{fill:#a5a5a5;}</style></defs><path class="a" d="M181.614,79.6H157.15V71.849a9.4,9.4,0,0,1,9.391-9.391h.447a9.4,9.4,0,0,1,9.391,9.391,2.179,2.179,0,0,0,4.358,0A13.744,13.744,0,0,0,166.988,58.1h-.447a13.744,13.744,0,0,0-13.749,13.749V79.6h-.806a5.184,5.184,0,0,0-5.186,5.186v16.892a5.184,5.184,0,0,0,5.186,5.186h29.628a5.184,5.184,0,0,0,5.186-5.186V84.787A5.184,5.184,0,0,0,181.614,79.6ZM168.7,93.818v4.8a1.606,1.606,0,0,1-1.607,1.607h-.6a1.606,1.606,0,0,1-1.607-1.607V93.764a3.445,3.445,0,1,1,3.813.054Z" transform="translate(-146.8 -58.1)"/></svg>