<svg xmlns="http://www.w3.org/2000/svg" width="28" height="28" viewBox="0 0 28 28"><defs><style>.a{fill:#ccc;}</style></defs><path class="a" d="M78.523,82.7C70.754,82.7,64.5,88.4,64.5,95.428a12.582,12.582,0,0,0,6.01,10.488v3.92a.8.8,0,0,0,.783.864.916.916,0,0,0,.391-.1l3.809-2.648a14.531,14.531,0,0,0,2.98.254c7.772,0,14.026-5.7,14.026-12.728C92.547,88.4,86.246,82.7,78.523,82.7Zm-6.3,14.815a1.733,1.733,0,1,1,1.662-1.732A1.685,1.685,0,0,1,72.219,97.515Zm6.4,0a1.733,1.733,0,1,1,1.662-1.732A1.751,1.751,0,0,1,78.62,97.515Zm6.157,0a1.733,1.733,0,1,1,1.662-1.732A1.716,1.716,0,0,1,84.778,97.515Zm0,0" transform="translate(-64.5 -82.7)"/></svg>