<svg xmlns="http://www.w3.org/2000/svg" width="50" height="50" viewBox="0 0 50 50"><defs><style>.a{fill:#7d7d7d;}</style></defs><path class="a" d="M92.121,118.065a25,25,0,1,1,17.674-7.32,24.841,24.841,0,0,1-17.674,7.32Zm0-46.414a21.42,21.42,0,1,0,15.155,6.276A21.293,21.293,0,0,0,92.121,71.651Zm12.5,19.62H93.907V80.508a1.787,1.787,0,0,0-3.571,0V91.27H79.621a1.8,1.8,0,0,0,0,3.587H90.335V105.62a1.787,1.787,0,0,0,3.571,0V94.858h10.715a1.8,1.8,0,0,0,.155-3.587q-.077,0-.155,0Z" transform="translate(-67.12 -68.065)"/></svg>