<svg xmlns="http://www.w3.org/2000/svg" width="60" height="60" viewBox="0 0 60 60"><defs><style>.a{fill:#4d4d4d;}</style></defs><path class="a" d="M68.561,44.567h47.455a2.575,2.575,0,0,1,2.455,2.7v21.3c-2.455-2.1-7.091-5.4-10.636-5.4-5.182,0-9.818,13.2-15.545,13.2-4.364-.3-10.364-5.7-17.182-4.8-2.727.6-6.545,5.4-9,9v-33.3A2.575,2.575,0,0,1,68.561,44.567Zm11.454,21.6a7.27,7.27,0,0,1-5.455-2.4,9.341,9.341,0,0,1,0-12,7.27,7.27,0,0,1,5.455-2.4,8.246,8.246,0,0,1,5.455,2.4,9.341,9.341,0,0,1,0,12A8.246,8.246,0,0,1,80.015,66.167Zm37.364-25.5H67.2a5.151,5.151,0,0,0-4.909,5.4v49.2a5.151,5.151,0,0,0,4.909,5.4h50.182a5.151,5.151,0,0,0,4.909-5.4v-49.2A5.151,5.151,0,0,0,117.379,40.667Z" transform="translate(-62.288 -40.667)"/></svg>