<svg xmlns="http://www.w3.org/2000/svg" width="28" height="28" viewBox="0 0 28 28"><defs><style>.a{fill:#0071c4;}</style></defs><path class="a" d="M28.083,6.3,25.27,2.7a.685.685,0,0,0-1.141,0L21.382,6.3a.458.458,0,0,0-.053.432.414.414,0,0,0,.332.265h1.048c0,2.1,0,4.819-3.636,7.034-.093.1,0,.195.093.195,6.794-1.1,7.365-5.933,7.365-7.229h1.141a.471.471,0,0,0,.411-.7Zm-8.705.933H18.237c0-2.1,0-4.819,3.636-7.034.093-.1,0-.195-.093-.195-6.794,1.1-7.365,5.933-7.365,7.229H13.261a.392.392,0,0,0-.385.237.4.4,0,0,0,.106.46l2.747,3.621a.685.685,0,0,0,1.141,0l2.84-3.593a.458.458,0,0,0,.053-.432.414.414,0,0,0-.332-.265l-.053-.028Zm0,0,4.339,13.287c-3.623-3.064-4.631-1.56-6.277.167-1.155,1.2-4.047-1.309-6.569-3.942s-4.91-5.683-3.755-6.88c1.646-1.727,3.079-2.786.159-6.588s-4.857-.891-6.449.78c-1.831,1.936-.08,9.123,6.688,16.226s13.615,8.928,15.46,7.006c1.592-1.671,4.366-3.7.743-6.769Zm0,0" transform="translate(-0.146 0)"/></svg>